<?xml version="1.0" encoding="UTF-8"?>
<svg id="Capa_1" data-name="Capa 1" xmlns="http://www.w3.org/2000/svg" viewBox="0 0 450 360">
  <path d="m135,90h-60c-8.29,0-15-6.71-15-15V15c0-8.29,6.71-15,15-15h60c8.29,0,15,6.71,15,15v60c0,8.29-6.71,15-15,15Z" fill="#4d5e80" stroke-width="0"/>
  <path d="m375,360H45c-24.81,0-45-20.19-45-45V105c0-24.81,20.19-45,45-45h150c8.29,0,15,6.71,15,15v180c0,8.28,6.72,15,15,15h180c8.29,0,15,6.71,15,15v30c0,24.81-20.19,45-45,45Z" fill="#ffdc99" stroke-width="0"/>
  <path d="m375,360c24.81,0,45-20.19,45-45v-30c0-8.29-6.71-15-15-15h-180v90h150Z" fill="#ffbe40" stroke-width="0"/>
  <g id="Gopro">
    <path d="m405,300h-180c-24.81,0-45-20.19-45-45V75c0-24.81,20.19-45,45-45h180c24.81,0,45,20.19,45,45v180c0,24.81-20.19,45-45,45Z" fill="#4d5e80" stroke-width="0"/>
    <path d="m405,300c24.81,0,45-20.19,45-45V75c0-24.81-20.19-45-45-45h-90v270h90Z" fill="#3d4566" stroke-width="0"/>
    <path d="m315,240c-41.35,0-75-33.65-75-75s33.65-75,75-75,75,33.65,75,75-33.65,75-75,75Z" fill="#f3f5f9" stroke-width="0"/>
    <path d="m390,165c0-41.35-33.65-75-75-75v150c41.35,0,75-33.65,75-75Z" fill="#e1e6f0" stroke-width="0"/>
    <circle cx="315" cy="165" r="45" fill="#51c5ff" stroke-width="0"/>
    <path d="m360,165c0-24.81-20.19-45-45-45v90c24.81,0,45-20.19,45-45Z" fill="#51adff" stroke-width="0"/>
    <path d="m135,210h-60c-8.29,0-15-6.71-15-15v-60c0-8.29,6.71-15,15-15h60c8.29,0,15,6.71,15,15v60c0,8.29-6.71,15-15,15Z" fill="#69dfff" stroke-width="0"/>
    <circle cx="75" cy="255" r="15" fill="#4d5e80" stroke-width="0"/>
    <circle cx="135" cy="255" r="15" fill="#4d5e80" stroke-width="0"/>
  </g>
</svg>