<svg xmlns="http://www.w3.org/2000/svg" version="1.1" xmlns:xlink="http://www.w3.org/1999/xlink" xmlns:svgjs="http://svgjs.com/svgjs" width="512" height="512" x="0" y="0" viewBox="0 0 512 512" style="enable-background:new 0 0 512 512" xml:space="preserve" class=""><g><path fill="#08e5f8" d="m45.198 391.892 421.605-.001c21.716-36.574 34.199-79.273 34.199-124.894 0-135.311-109.691-245.002-245.002-245.002S10.998 131.686 10.998 266.997c0 45.622 12.484 88.321 34.2 124.895z" data-original="#7e6dd1" class="" opacity="1"></path><path fill="#56415e" d="M355.306 71.72C332.432-.951 256 .001 256 .001S179.568-.95 156.694 71.72c-17.156 54.503-13.853 109.659-21.203 153.076-4.532 26.769 14.112 52.018 40.986 55.879 19.152 2.752 44.942 4.725 79.523 4.725s60.37-1.973 79.523-4.725c26.874-3.861 45.518-29.111 40.986-55.879-7.35-43.417-4.047-98.574-21.203-153.076z" data-original="#56415e" class=""></path><path fill="#45304c" d="M256 .001S179.568-.95 156.694 71.72c-17.156 54.503-13.853 109.659-21.203 153.076-4.532 26.769 14.112 52.018 40.986 55.879 19.153 2.752 44.942 4.725 79.523 4.725s60.37-1.973 79.523-4.725c26.874-3.861 45.518-29.111 40.986-55.879-35.335 18.129-46.602-8.644-46.602-8.644s-65.396-92.818-96.429-140.305C202.446 28.359 256 .001 256 .001z" data-original="#45304c" class=""></path><path fill="#ffd9a1" d="M318.343 306.537a10.248 10.248 0 0 1 3.073-6.387c-13.05-7.793-22.37-17.217-22.37-28.248v-8.063c-10.43 9.324-28.316 21.203-43.046 21.56-14.73-.357-32.616-12.236-43.045-21.56v8.063c0 10.674-8.732 19.843-21.122 27.487a9.788 9.788 0 0 1 3.112 6.367c2.019 22.588 14.373 44.586 36.717 65.383 6.609 6.153.711 17.356-8.629 14.816a298.171 298.171 0 0 1-3.975-1.117 1.558 1.558 0 0 0-1.989 1.496v13.373a164.591 164.591 0 0 0 17.531 8.866c14.048 6.075 30.154 6.076 44.2 0a164.575 164.575 0 0 0 16.13-8.065v-13.785c0-1.031-.987-1.78-1.982-1.498-.9.255-1.78.501-2.618.73-9.322 2.543-15.247-8.655-8.63-14.816 22.081-20.55 34.408-42.285 36.643-64.602z" data-original="#ffd9a1" class=""></path><path fill="#f9c98a" d="M212.955 271.902c0 10.674-8.732 19.843-21.122 27.487a9.788 9.788 0 0 1 3.112 6.367c1.347 15.071 7.302 29.879 17.749 44.244a24.859 24.859 0 0 0 1.76-.253C253.545 342.681 256 285.399 256 285.399c-14.73-.356-32.616-12.236-43.045-21.56z" data-original="#f9c98a" class=""></path><path fill="#6c5475" d="M294.931 398.433a164.686 164.686 0 0 1-16.13 8.065c-14.045 6.076-30.152 6.075-44.2 0a164.607 164.607 0 0 1-17.532-8.866v111.277a246.724 246.724 0 0 0 77.862 0z" data-original="#6c5475"></path><path fill="#ff7186" d="M188.752 354.836c-4.402 10.56-5.818 15.386-6.262 17.52-4.35.343-19.602 1.834-34.684 6.746-23.917 7.792-36.56 20.605-36.56 37.056v48.486c33.19 24.349 72.728 40.553 115.685 45.632V367.764l-35.086-17.957c-1.226 1.384-2.268 3.05-3.093 5.029z" data-original="#ff7186" class=""></path><path fill="#ff4155" d="m193.221 350.51-56.988-29.167c-15.466 4.201-27.093 6.325-27.093 6.325-12.649 2.429-40.411 11.263-56.229 42.899-3.036 6.072-5.584 13.271-7.712 21.326 17.229 29.017 40.291 54.151 67.549 73.834v-49.569c0-38.49 71.049-42.391 71.049-42.391s-.184-2.702 6.341-18.354c.854-2.051 1.906-3.652 3.083-4.903z" data-original="#ff4155" class=""></path><path fill="#ff7186" d="M466.803 391.892c-2.128-8.055-4.676-15.254-7.712-21.326-15.819-31.636-43.581-40.47-56.23-42.899 0 0-10.342-1.888-24.494-5.628l-93.298 46.713v141.523c77.391-9.149 143.723-54.365 181.734-118.383z" data-original="#ff7186" class=""></path><path fill="#d3dcfb" d="M290.741 387.458c18.502-5.045 52.497-16.377 78.066-36.743a53.492 53.492 0 0 0 8.021-7.895c9.341-11.379 4.158-28.645-9.892-33.043-11.033-3.454-22.784-7.75-33.274-12.878-7.399-3.617-16.048 1.289-16.868 9.485-1.791 17.893-10.793 40.014-36.152 63.617a10.341 10.341 0 0 0-2.682 11.06c1.831 5.146 7.509 7.834 12.781 6.397zM232.723 370c-8.356-7.777-14.927-15.392-20.058-22.75-3.353-1.386-9.492-3.244-15.092-1.311-3.961 1.366-6.928 4.359-8.82 8.898-4.402 10.56-5.818 15.386-6.262 17.52-.416.033-.933.076-1.539.132 15.955 7.305 31.264 12.132 41.672 14.97 5.271 1.438 10.949-1.251 12.781-6.398A10.342 10.342 0 0 0 232.723 370z" data-original="#d3dcfb" class=""></path><path fill="#bec8f7" d="M196.496 305.618c-.735-8.222-9.628-12.974-17.014-9.287-10.469 5.226-22.29 9.608-33.442 13.137-13.973 4.421-19.003 21.575-9.803 32.985a53.49 53.49 0 0 0 8.32 8.262c12.044 9.593 25.956 17.18 39.239 23.052-.001-.018-.163-2.752 6.341-18.353 6.524-15.651 24.315-5.666 24.317-5.665-11.967-16.245-16.811-31.301-17.958-44.131z" data-original="#bec8f7" class=""></path><path fill="#deeeff" d="M190.137 445.884c-4.872 0-8.857-3.986-8.857-8.857V364.27c0-4.871 3.986-8.857 8.857-8.857 4.872 0 8.857 3.986 8.857 8.857v72.757c0 4.871-3.985 8.857-8.857 8.857zM321.863 445.884c-4.872 0-8.857-3.986-8.857-8.857V364.27c0-4.871 3.986-8.857 8.857-8.857 4.872 0 8.857 3.986 8.857 8.857v72.757c.001 4.871-3.985 8.857-8.857 8.857z" data-original="#deeeff" class=""></path><path fill="#11cbe4" d="M419.776 84.794c-12.029 10.951-24.282 29.431-19.438 57.533 8.178 47.444-2.645 163.175 95.607 174.404a245.863 245.863 0 0 0 5.057-49.732c0-72.345-31.364-137.357-81.226-182.205zM92.224 84.794c12.029 10.951 24.282 29.431 19.438 57.533-8.178 47.444 2.645 163.175-95.606 174.404a245.863 245.863 0 0 1-5.057-49.732c-.001-72.345 31.363-137.357 81.225-182.205z" data-original="#9589e8" class="" opacity="1"></path><path fill="#ff4155" d="M435.825 433.339c-5.119-18.997-17.039-30.118-26.751-36.258-6.251-3.952-14.402.496-14.402 7.892v63.987a246.22 246.22 0 0 0 41.153-35.621z" data-original="#ff4155" class=""></path><path fill="#ffd9a1" d="M361.73 136.423c-1.26-.555-2.74-.467-3.865.327-5.067 3.578-11.741 3.973-17.227 1.271 2.688 19.177-1.119 43.304-1.119 43.304-.202.889-.413 1.749-.619 2.624 13.642.21 16.932-8.672 17.589-14.74a34.06 34.06 0 0 1 2.007-8.336c2.139-5.688 5.748-13.475 5.659-20.812a4.043 4.043 0 0 0-2.425-3.638z" data-original="#ffd9a1" class=""></path><path fill="#fce6ca" d="M341.365 138.348a16.907 16.907 0 0 1-6.495-4.96c-7.74-9.692-20.07-28.512-26.096-55.807-.522-2.367-3.019-3.729-5.269-2.827-8.177 3.278-27.665 8.757-55.156 1.541-6.609-1.735-11.977-1.579-16.424.048-5.269 23.092-25.272 140.397 49.673 203.798 14.327-8.516 26.114-20.296 34.479-34.612 10.392-17.784 18.504-39.335 24.114-64.098 1.578-10.028 3.218-28.193 1.174-43.083z" data-original="#fce6ca" class=""></path><path fill="#ffd9a1" d="M233.478 75.846c-29.795 8.216-20.269 78.769-51.49 106.982-5.059 4.572-6.99 11.678-5.012 18.203 5.051 16.664 11.392 31.576 18.942 44.497 10.552 18.058 26.532 32.103 46.212 40.618 8.815 3.812 18.922 3.813 27.735 0a102.858 102.858 0 0 0 13.001-6.772C204.51 214.667 229.63 90.672 233.478 75.846z" data-original="#ffd9a1" class=""></path></g></svg>