<?xml version="1.0" encoding="iso-8859-1"?>
<!-- Generator: Adobe Illustrator 27.2.0, SVG Export Plug-In . SVG Version: 6.00 Build 0)  -->
<svg version="1.1" id="Capa_1" xmlns="http://www.w3.org/2000/svg" xmlns:xlink="http://www.w3.org/1999/xlink" x="0px" y="0px"
	 viewBox="0 0 512.046 512.046" style="enable-background:new 0 0 512.046 512.046;" xml:space="preserve">
<g>
	<path d="M467.333,144.672c-24.46,0-44.359,20.79-44.359,46.344v103.098c-16.036-6.035-34.768-1.588-46.548,11.17
		c0,0-99.065,104.96-99.065,104.96c-8.847,9.374-16.01,20.06-21.337,31.634c-5.327-11.575-12.49-22.261-21.337-31.635
		l-99.066-104.96c-11.775-12.755-30.516-17.206-46.547-11.169c0,0,0-103.098,0-103.098c-2.428-61.419-86.237-61.541-88.719,0
		c0,0,0,177.1,0,177.1c0,23.944,8.766,46.552,24.682,63.658c0,0,71.373,76.718,71.373,76.718
		c10.29,10.251,25.645-3.829,16.107-14.984c0,0-71.373-76.719-71.373-76.719c-12.116-13.022-18.789-30.308-18.789-48.673V191.016
		c0-13.423,10.03-24.344,22.359-24.344s22.359,10.921,22.359,24.344v120.988c-11.701,18.144-9.715,42.628,5.254,58.488
		l73.672,78.056c4.177,4.423,11.139,4.612,15.551,0.449c4.418-4.17,4.619-11.132,0.449-15.55l-73.672-78.056
		c-13.798-14.305-5.31-41.714,15.647-41.935c5.874,0,11.431,2.46,15.647,6.927l99.065,104.96
		c15.988,16.94,25.24,39.194,26.326,63.053c-0.027,2.045-0.264,4.169,0.092,6.193c0,0-0.08,6.272-0.08,6.272
		c0.403,14.598,21.223,14.866,21.998,0.279c0.001-3.017,0.207-9.833,0.011-12.76c1.088-23.853,10.342-46.101,26.326-63.036
		l99.065-104.96c4.217-4.468,9.774-6.928,15.648-6.928c20.952,0.234,29.452,27.609,15.646,41.936c0,0-73.672,78.056-73.672,78.056
		c-4.17,4.418-3.969,11.38,0.449,15.55c4.411,4.164,11.374,3.974,15.551-0.449c0,0,73.672-78.056,73.672-78.056
		c14.969-15.86,16.955-40.344,5.254-58.488c0,0,0-120.988,0-120.988c0-13.423,10.03-24.344,22.359-24.344
		s22.359,10.921,22.359,24.344v177.101c0,18.365-6.673,35.65-18.789,48.674l-71.373,76.718c-4.138,4.447-3.887,11.408,0.562,15.546
		c4.438,4.132,11.4,3.893,15.546-0.562c0,0,71.373-76.717,71.373-76.717c15.916-17.107,24.682-39.715,24.682-63.659V191.016
		C511.692,165.462,491.793,144.672,467.333,144.672z"/>
	<path style="fill:#33CCCC;" d="M256.531,260.608c-2.568,0-5.137-0.896-7.204-2.688c-12.229-10.599-23.774-20.35-34.939-29.779
		c-63.871-53.944-106.066-89.582-106.066-141.697c0-22.519,7.883-43.841,22.195-60.038C145.564,9.378,166.132,0,188.433,0
		c24.885,0,46.627,12.14,62.876,35.108c2.156,3.048,4.077,6.095,5.777,9.043c1.593-2.894,3.395-5.88,5.422-8.867
		C278.172,12.201,299.653,0,324.628,0c44.354,0,79.098,37.971,79.098,86.444c0,52.509-42.642,88.683-107.186,143.438
		c-10.481,8.891-21.319,18.085-32.804,28.038C261.668,259.713,259.099,260.608,256.531,260.608z M188.433,22
		c-32.586,0-58.112,28.308-58.112,64.444c0,41.899,39.091,74.915,98.262,124.89c9.008,7.608,18.263,15.425,27.946,23.744
		c8.925-7.676,17.463-14.919,25.777-21.973c61.998-52.594,99.419-84.339,99.419-126.661c0-31.678-21.357-64.444-57.098-64.444
		c-17.421,0-32.085,8.462-43.583,25.152c-9.277,13.467-12.943,27.362-12.979,27.501c-1.245,4.81-5.564,8.2-10.53,8.255
		c-0.041,0-0.082,0.001-0.123,0.001c-4.917,0-9.247-3.254-10.587-7.995c-0.033-0.114-4.111-14.054-13.816-27.577
		C220.946,30.524,205.948,22,188.433,22z"/>
</g>
<g>
</g>
<g>
</g>
<g>
</g>
<g>
</g>
<g>
</g>
<g>
</g>
<g>
</g>
<g>
</g>
<g>
</g>
<g>
</g>
<g>
</g>
<g>
</g>
<g>
</g>
<g>
</g>
<g>
</g>
</svg>
