<svg height="512" viewBox="0 0 24 24" width="512" xmlns="http://www.w3.org/2000/svg"><g id="Flat"><g fill="#155fb7"><path d="m19 8.5h1a2 2 0 0 1 2 2v2a2 2 0 0 1 -2 2h-1a0 0 0 0 1 0 0v-6a0 0 0 0 1 0 0z"/><path d="m2 8.5h1a2 2 0 0 1 2 2v2a2 2 0 0 1 -2 2h-1a0 0 0 0 1 0 0v-6a0 0 0 0 1 0 0z" transform="matrix(-1 0 0 -1 7 23)"/><path d="m15 6.75a.76.76 0 0 1 -.75-.75v-4a.75.75 0 0 1 1.5 0v4a.76.76 0 0 1 -.75.75z"/></g><path d="m17 6h-10a2 2 0 0 0 -2 2v9a2 2 0 0 0 2 2h1.34v1.91a.49.49 0 0 0 .82.37l2.64-2.28h5.2a2 2 0 0 0 2-2v-9a2 2 0 0 0 -2-2z" fill="#2675e2"/><path d="m15 11.25h-6a.75.75 0 0 1 0-1.5h6a.75.75 0 0 1 0 1.5z" fill="#edebea"/><path d="m15 15.25h-6a.75.75 0 0 1 0-1.5h6a.75.75 0 0 1 0 1.5z" fill="#edebea"/></g></svg>