<?xml version="1.0" encoding="UTF-8"?>
<svg id="Capa_1" data-name="Capa 1" xmlns="http://www.w3.org/2000/svg" viewBox="0 0 434 434">
  <path d="m335.02,194.95H98.98c-5.08,0-9.2-4.12-9.2-9.2s4.12-9.2,9.2-9.2h236.05c42.78,0,77.59-34.81,77.59-77.59s-34.81-77.59-77.59-77.59H98.98c-5.08,0-9.2-4.12-9.2-9.2s4.12-9.2,9.2-9.2h236.05c52.92,0,95.98,43.05,95.98,95.98s-43.05,95.98-95.98,95.98Z" stroke="#f7f9f9" stroke-miterlimit="10" stroke-width="6"/>
  <path d="m335.02,431H98.98c-52.92,0-95.98-43.05-95.98-95.98s43.05-95.98,95.98-95.98h236.05c5.08,0,9.2,4.12,9.2,9.2s-4.12,9.2-9.2,9.2H98.98c-42.78,0-77.59,34.81-77.59,77.59s34.81,77.59,77.59,77.59h236.05c5.08,0,9.2,4.12,9.2,9.2s-4.12,9.2-9.2,9.2Z" stroke="#f5f7f7" stroke-miterlimit="10" stroke-width="6"/>
  <path d="m98.98,194.95c-52.92,0-95.98-43.05-95.98-95.98S46.05,3,98.98,3s95.98,43.05,95.98,95.98-43.05,95.98-95.98,95.98Zm0-173.56c-42.78,0-77.59,34.81-77.59,77.59s34.81,77.59,77.59,77.59,77.59-34.81,77.59-77.59c0-42.78-34.8-77.59-77.59-77.59Z" fill="#3cc" stroke="#f7f9f9" stroke-miterlimit="10" stroke-width="6"/>
  <path d="m335.02,431c-52.92,0-95.98-43.05-95.98-95.98s43.05-95.98,95.98-95.98,95.98,43.06,95.98,95.98-43.05,95.98-95.98,95.98Zm0-173.56c-42.78,0-77.59,34.81-77.59,77.59s34.81,77.59,77.59,77.59,77.59-34.81,77.59-77.59-34.81-77.59-77.59-77.59Z" fill="#3cc" stroke="#f7f7f7" stroke-miterlimit="10" stroke-width="6"/>
</svg>