<?xml version="1.0" encoding="UTF-8"?>
<svg id="Capa_1" data-name="Capa 1" xmlns="http://www.w3.org/2000/svg" viewBox="0 0 500 367.41">
  <path d="m116.25,361.41c-21.81,0-39.55-17.74-39.55-39.55,2.17-52.47,76.94-52.46,79.11,0,0,21.81-17.74,39.55-39.55,39.55Zm0-58.14c-10.25,0-18.58,8.34-18.58,18.58,1.02,24.65,36.15,24.65,37.17,0,0-10.25-8.34-18.58-18.58-18.58Z" stroke="#fff" stroke-miterlimit="10" stroke-width="12"/>
  <path d="m493.06,223.53l-43.39-95.37c-7.2-15.82-19.63-29.2-35.94-38.68-16.02-9.32-34.72-14.24-54.07-14.24h-43.88v20.97h43.88c28.58,0,54.77,13.56,67.57,34.36h-24.91c-23.61,0-42.82,16.99-42.82,37.88v59.58c0,5.79,4.69,10.48,10.48,10.48h103.06v60.45h-38.14c-15.35-22.08-49.1-22.07-64.44,0h-54.67v10.48c0,4.08-2.34,7.61-5.75,9.34v1.14h53.13c-1.16,22.45,17.02,41.55,39.5,41.48,22.48.07,40.67-19.03,39.5-41.48h41.34c5.79,0,10.48-4.69,10.48-10.48v-81.58c0-1.5-.32-2.98-.94-4.34Zm-90.39,116.92c-10.25,0-18.58-8.34-18.58-18.58,1.02-24.65,36.15-24.65,37.17,0,0,10.25-8.34,18.58-18.58,18.58Zm-22.21-172c0-9.32,9.8-16.91,21.85-16.91h34.95l30.03,66.01h-86.84v-49.1h0Z" stroke="#fff" stroke-miterlimit="10" stroke-width="12"/>
  <path d="m305.29,6H16.48c-5.79,0-10.48,4.69-10.48,10.48v292.96c0,5.79,4.69,10.48,10.48,10.48h60.26c.38-7.79,3.02-14.99,7.28-20.97H26.97V26.97h267.84v271.99h-146.34c4.26,5.98,6.91,13.18,7.28,20.97h149.54c5.79,0,10.48-4.69,10.48-10.48V16.48c0-5.79-4.69-10.48-10.48-10.48Z" fill="#33caca" stroke="#fff" stroke-miterlimit="10" stroke-width="12"/>
</svg>