<?xml version="1.0" encoding="UTF-8"?>
<svg xmlns="http://www.w3.org/2000/svg" xmlns:xlink="http://www.w3.org/1999/xlink" version="1.1" id="Capa_1" x="0px" y="0px" viewBox="0 0 512 512" style="enable-background:new 0 0 512 512;" xml:space="preserve" width="512" height="512">
<g>
	<path style="fill:#A65D4E;" d="M13.358,171.597L13.358,171.597c16.366-16.366,24.704-39.042,23.087-62.13&#10;&#9;&#9;c-3.244-46.35,1.335-84.988,22.242-97.058C122.02-24.157,275.5,155.56,275.5,155.56L69.301,341.928&#10;&#9;&#9;c-7.81,7.811-20.474,7.811-28.284,0l0,0c-7.811-7.811-7.811-20.474,0-28.284l19.065-19.065c-7.811,7.81-20.474,7.81-28.284,0v0&#10;&#9;&#9;c-7.811-7.81-7.811-20.474,0-28.284l19.065-19.064c-7.811,7.81-20.474,7.81-28.284,0v0c-7.81-7.81-7.81-20.474,0-28.284&#10;&#9;&#9;l19.065-19.065c-7.811,7.811-20.474,7.811-28.284,0l0,0C5.547,192.07,5.547,179.407,13.358,171.597z"/>
	<path style="fill:#915041;" d="M147.763,36.449l-0.044,0.093c11.958,11.958,11.958,31.345,0,43.302&#10;&#9;&#9;c-11.958,11.958-31.345,11.958-43.302,0l48.833,185.419L275.5,155.56C275.5,155.56,210.581,79.546,147.763,36.449z"/>
	<path style="fill:#FFA8AD;" d="M119.447,295.597l73.65-66.091c-4.377-13.365-9.396-28.639-9.954-30.11&#10;&#9;&#9;c-24.164-63.751-64.2-107.235-82.896-125.143c-5.767-5.525-14.561-6.382-21.273-2.055l-0.045,0.029&#10;&#9;&#9;c-5.257,3.389-8.225,9.367-7.815,15.608C74.667,141.973,103.609,243.591,119.447,295.597z"/>
	<path style="fill:#B46E5A;" d="M498.642,171.597L498.642,171.597c-16.366-16.366-24.703-39.042-23.087-62.13&#10;&#9;&#9;c3.244-46.35-1.335-84.988-22.242-97.058C389.98-24.157,236.5,155.56,236.5,155.56l206.199,186.368&#10;&#9;&#9;c7.81,7.811,20.474,7.811,28.284,0l0,0c7.811-7.811,7.811-20.474,0-28.284l-19.065-19.065c7.811,7.81,20.474,7.81,28.284,0v0&#10;&#9;&#9;c7.811-7.81,7.811-20.474,0-28.284l-19.065-19.064c7.811,7.81,20.474,7.81,28.284,0v0c7.81-7.81,7.81-20.474,0-28.284&#10;&#9;&#9;l-19.065-19.065c7.811,7.811,20.474,7.811,28.284,0l0,0C506.453,192.07,506.453,179.407,498.642,171.597z"/>
	<path style="fill:#A65D4E;" d="M364.237,36.449l0.044,0.093c-11.958,11.958-11.958,31.345,0,43.302&#10;&#9;&#9;c11.958,11.958,31.345,11.958,43.302,0L358.75,265.264L236.5,155.56C236.5,155.56,301.419,79.546,364.237,36.449z"/>
	<path style="fill:#FFC6C2;" d="M392.553,295.597l-73.65-66.091c4.377-13.365,9.396-28.639,9.954-30.11&#10;&#9;&#9;c24.164-63.751,64.2-107.235,82.896-125.143c5.767-5.525,14.561-6.382,21.273-2.055l0.045,0.029&#10;&#9;&#9;c5.257,3.389,8.224,9.367,7.815,15.608C437.333,141.973,408.391,243.591,392.553,295.597z"/>
	<path style="fill:#C38778;" d="M436,287.833c0-61.255-30.605-115.354-77.351-147.866H153.171&#10;&#9;&#9;c-46.532,32.367-76.979,86.161-77.17,147.292c-0.117,37.589,11.294,72.503,30.892,101.418&#10;&#9;&#9;c8.476,12.505,16.185,25.497,23.102,38.928c0.002,0.004,0.004,0.008,0.006,0.012h252c6.727-12.993,13.989-25.707,22.294-37.752&#10;&#9;&#9;C424.288,360.867,436,325.72,436,287.833z"/>
	<path style="fill:#B46E5A;" d="M186.893,388.678c-19.598-28.915-31.01-63.828-30.892-101.418&#10;&#9;&#9;c0.191-61.133,30.638-114.927,77.172-147.292H153.17c-46.532,32.367-76.979,86.161-77.17,147.292&#10;&#9;&#9;c-0.117,37.589,11.294,72.503,30.892,101.418c8.476,12.505,16.185,25.497,23.102,38.928c0.002,0.004,0.004,0.008,0.006,0.012h80&#10;&#9;&#9;c-0.002-0.004-0.004-0.008-0.006-0.012C203.079,414.175,195.369,401.183,186.893,388.678z"/>
	<path style="fill:#FFF2DE;" d="M301,250.964v-1.265c0-23.889,10.365-46.423,27.937-62.607&#10;&#9;&#9;c13.718-12.634,24.146-28.785,29.861-47.021c-29.146-20.315-64.577-32.237-102.797-32.237c-38.27,0-73.7,11.871-102.83,32.134&#10;&#9;&#9;c5.71,18.287,16.16,34.482,29.913,47.143C200.653,203.282,211,225.818,211,249.697v1.23c0,27.307-12.981,53.184-35.332,68.872&#10;&#9;&#9;c-20.348,14.282-36.72,33.843-47.13,56.693c-7.415,16.276-6.849,35.01,1.349,50.906c0.036,0.069,0.071,0.138,0.107,0.208&#10;&#9;&#9;C153.508,473.268,201.101,504.5,256,504.5h0c54.81,0,102.337-31.131,125.89-76.672c0.036-0.07,0.073-0.14,0.109-0.21&#10;&#9;&#9;c8.298-16.025,8.868-34.952,1.356-51.36c-10.418-22.757-26.755-42.238-47.042-56.472C313.975,304.112,301,278.253,301,250.964z"/>
	<path style="fill:#FFE4C2;" d="M196.001,434.47c0-69.817,51.108-127.691,117.952-138.266C305.569,282.847,301,267.158,301,250.964&#10;&#9;&#9;v-1.265c0-23.889,10.365-46.424,27.937-62.607c13.718-12.634,24.146-28.785,29.861-47.021&#10;&#9;&#9;c-29.146-20.315-64.577-32.237-102.797-32.237c-38.27,0-73.7,11.871-102.83,32.134c5.71,18.287,16.16,34.482,29.913,47.143&#10;&#9;&#9;C200.653,203.282,211,225.818,211,249.697v1.23c0,27.307-12.981,53.184-35.332,68.872c-20.348,14.282-36.72,33.843-47.13,56.693&#10;&#9;&#9;c-7.414,16.276-6.849,35.01,1.349,50.906c0.036,0.069,0.071,0.138,0.107,0.208c16.738,32.506,45.685,57.685,80.777,69.504&#10;&#9;&#9;C201.325,478.261,196.001,456.989,196.001,434.47z"/>
	<path style="fill:#636978;" d="M306,354.238c0,11.216-9.054,21.528-19.457,29.675c-17.976,14.077-43.11,14.077-61.086,0&#10;&#9;&#9;C215.054,375.766,206,365.454,206,354.238C206,327.881,306,327.881,306,354.238z"/>
	<path style="fill:#555A66;" d="M269.674,335.145C241.07,332.266,206,338.629,206,354.238c0,11.216,9.054,21.528,19.457,29.675&#10;&#9;&#9;c12.134,9.502,27.528,12.581,41.782,9.255C254.945,389.418,246,377.991,246,364.471C246,350.073,256.144,338.05,269.674,335.145z"/>
	<g>
		<path style="fill:none;stroke:#000000;stroke-width:15;stroke-linecap:round;stroke-linejoin:round;stroke-miterlimit:10;" d="&#10;&#9;&#9;&#9;M148.877,37.215c29.211,20.213,58.791,47.4,82.008,70.619"/>
		<path style="fill:none;stroke:#000000;stroke-width:15;stroke-linecap:round;stroke-linejoin:round;stroke-miterlimit:10;" d="&#10;&#9;&#9;&#9;M79.931,332.32l-10.63,9.608c-7.81,7.811-20.474,7.811-28.284,0l0,0c-7.811-7.811-7.811-20.474,0-28.284l19.065-19.065&#10;&#9;&#9;&#9;c-7.811,7.81-20.474,7.81-28.284,0v0c-7.811-7.81-7.811-20.474,0-28.284l19.065-19.064c-7.811,7.81-20.474,7.81-28.284,0v0&#10;&#9;&#9;&#9;c-7.81-7.81-7.81-20.474,0-28.284l19.065-19.065c-7.811,7.811-20.474,7.811-28.284,0l0,0c-7.811-7.811-7.811-20.474,0-28.284l0,0&#10;&#9;&#9;&#9;c16.366-16.366,24.703-39.042,23.087-62.13c-3.244-46.35,1.335-84.988,22.242-97.058c16.702-9.643,39.674-4.244,64.446,8.934"/>
		<path style="fill:none;stroke:#000000;stroke-width:15;stroke-linecap:round;stroke-linejoin:round;stroke-miterlimit:10;" d="&#10;&#9;&#9;&#9;M152.188,138.007c-19.565-30.67-40.061-52.375-51.941-63.755c-5.767-5.525-14.561-6.382-21.273-2.055l-0.045,0.029&#10;&#9;&#9;&#9;c-5.257,3.389-8.225,9.367-7.815,15.608c1.984,30.235,11.887,75.279,23.004,118.219"/>
		<path style="fill:none;stroke:#000000;stroke-width:15;stroke-linecap:round;stroke-linejoin:round;stroke-miterlimit:10;" d="&#10;&#9;&#9;&#9;M430.75,331.128l11.949,10.8c7.81,7.811,20.474,7.811,28.284,0l0,0c7.811-7.811,7.811-20.474,0-28.284l-19.065-19.065&#10;&#9;&#9;&#9;c7.811,7.81,20.474,7.81,28.284,0v0c7.811-7.81,7.811-20.474,0-28.284l-19.065-19.064c7.811,7.81,20.474,7.81,28.284,0v0&#10;&#9;&#9;&#9;c7.81-7.81,7.81-20.474,0-28.284l-19.065-19.065c7.811,7.811,20.474,7.811,28.284,0l0,0c7.811-7.811,7.811-20.474,0-28.284l0,0&#10;&#9;&#9;&#9;c-16.366-16.366-24.703-39.042-23.087-62.13c3.244-46.35-1.335-84.988-22.242-97.058&#10;&#9;&#9;&#9;c-41.533-23.979-121.836,45.057-172.197,95.424"/>
		<path style="fill:none;stroke:#000000;stroke-width:15;stroke-linecap:round;stroke-linejoin:round;stroke-miterlimit:10;" d="&#10;&#9;&#9;&#9;M358.796,139.609c19.868-31.517,40.871-53.78,52.956-65.357c5.767-5.525,14.561-6.382,21.273-2.055l0.045,0.029&#10;&#9;&#9;&#9;c5.257,3.389,8.224,9.367,7.815,15.608c-1.984,30.235-11.887,75.279-23.004,118.219"/>
		<path style="fill:none;stroke:#000000;stroke-width:15;stroke-linecap:round;stroke-linejoin:round;stroke-miterlimit:10;" d="&#10;&#9;&#9;&#9;M436,287.833c0-99.411-80.588-180-179.999-180c-99.402,0-179.69,80.025-180,179.427c-0.117,37.589,11.294,72.503,30.892,101.418&#10;&#9;&#9;&#9;c8.476,12.505,16.185,25.497,23.102,38.928C153.508,473.268,201.101,504.5,256,504.5h0c54.81,0,102.337-31.131,125.89-76.672&#10;&#9;&#9;&#9;c6.758-13.066,14.054-25.852,22.404-37.963C424.288,360.867,436,325.72,436,287.833z"/>
		<path style="fill:none;stroke:#000000;stroke-width:15;stroke-linecap:round;stroke-linejoin:round;stroke-miterlimit:10;" d="&#10;&#9;&#9;&#9;M344.146,325.7c-2.539-2.06-5.151-4.033-7.833-5.915C313.975,304.112,301,278.253,301,250.964v-1.265&#10;&#9;&#9;&#9;c0-23.889,10.365-46.423,27.937-62.607c13.718-12.634,24.146-28.785,29.861-47.021"/>
		<path style="fill:none;stroke:#000000;stroke-width:15;stroke-linecap:round;stroke-linejoin:round;stroke-miterlimit:10;" d="&#10;&#9;&#9;&#9;M381.999,427.617c8.298-16.025,8.868-34.952,1.356-51.36c-4.91-10.725-11.135-20.723-18.468-29.787"/>
		<path style="fill:none;stroke:#000000;stroke-width:15;stroke-linecap:round;stroke-linejoin:round;stroke-miterlimit:10;" d="&#10;&#9;&#9;&#9;M153.171,139.968c5.71,18.287,16.16,34.482,29.913,47.143C200.653,203.282,211,225.818,211,249.697v1.23&#10;&#9;&#9;&#9;c0,27.307-12.981,53.184-35.332,68.872c-20.348,14.282-36.72,33.843-47.13,56.693c-7.415,16.276-6.849,35.01,1.349,50.906&#10;&#9;&#9;&#9;c0.036,0.069,0.071,0.138,0.107,0.208"/>
		<path style="fill:none;stroke:#000000;stroke-width:15;stroke-linecap:round;stroke-linejoin:round;stroke-miterlimit:10;" d="&#10;&#9;&#9;&#9;M324.284,422.66c-7.239,7.239-17.239,11.716-28.284,11.716c-22.091,0-40-17.909-40-40"/>
		<path style="fill:none;stroke:#000000;stroke-width:15;stroke-linecap:round;stroke-linejoin:round;stroke-miterlimit:10;" d="&#10;&#9;&#9;&#9;M187.716,422.66c7.239,7.239,17.239,11.716,28.284,11.716c22.091,0,40-17.909,40-40"/>
		
			<line style="fill:none;stroke:#000000;stroke-width:15;stroke-linecap:round;stroke-linejoin:round;stroke-miterlimit:10;" x1="163.551" y1="263.376" x2="163.551" y2="275.376"/>
		
			<line style="fill:none;stroke:#000000;stroke-width:15;stroke-linecap:round;stroke-linejoin:round;stroke-miterlimit:10;" x1="348.449" y1="263.376" x2="348.449" y2="275.376"/>
		<path style="fill:none;stroke:#000000;stroke-width:15;stroke-linecap:round;stroke-linejoin:round;stroke-miterlimit:10;" d="&#10;&#9;&#9;&#9;M306,354.238c0,11.216-9.054,21.528-19.457,29.675c-17.976,14.077-43.11,14.077-61.086,0C215.054,375.766,206,365.454,206,354.238&#10;&#9;&#9;&#9;C206,327.881,306,327.881,306,354.238z"/>
	</g>
</g>















</svg>
