<?xml version="1.0" encoding="UTF-8"?>
<svg id="svg1533" xmlns="http://www.w3.org/2000/svg" viewBox="0 0 651.33 619.38">
  <path id="path1551" d="m640.33,277.67s0-186.67,0-186.67c0-44.18-35.82-80-80-80H91c-44.18,0-80,35.82-80,80v320c0,44.18,35.82,80,80,80,59.37,3.1,57.86,56.2,56,101.34,0,14.27,17.25,21.41,27.34,11.32,42.45-39.21,98.38-118.33,164.15-112.66,0,0,221.84,0,221.84,0,44.18,0,80-35.82,80-80" fill="none" stroke="#000" stroke-linecap="round" stroke-linejoin="round" stroke-width="22"/>
  <g id="g1553">
    <path id="path1555" d="m325.65,374.03c-24.31-.43-24.06-36.68.3-36.73,23.8.46,23.54,36.64-.3,36.73" fill="#33caca" stroke-width="0"/>
  </g>
  <g id="g1557">
    <path id="path1559" d="m261.67,184.33c0-36.17,30.01-65.34,66.49-63.95,70.22,1.94,83.77,104.05,17.75,124.68-21.14,6.76-21.13,28.85-20.25,47.27" fill="none" stroke="#33caca" stroke-linecap="round" stroke-miterlimit="13.33" stroke-width="25"/>
  </g>
</svg>