<?xml version="1.0" encoding="UTF-8"?>
<svg id="Capa_1" data-name="Capa 1" xmlns="http://www.w3.org/2000/svg" viewBox="0 0 504 413.92">
  <path d="m416.05,258.25c-3.14,0-6.25-1.33-8.42-3.92-3.91-4.65-3.31-11.59,1.34-15.5,6.78-5.7,10.79-14.97,10.71-24.78-.07-9.58-3.93-18.18-10.58-23.6-4.71-3.84-5.42-10.77-1.58-15.48,3.84-4.71,10.77-5.42,15.48-1.58,11.75,9.57,18.56,24.32,18.68,40.48.13,16.54-6.63,31.77-18.55,41.79-2.06,1.73-4.58,2.58-7.07,2.58Z" fill="#3cc" stroke="#f7f7f7" stroke-miterlimit="10" stroke-width="12"/>
  <path d="m461.32,285.06c-3.09,0-6.17-1.3-8.34-3.83-3.96-4.61-3.44-11.55,1.17-15.51,13.84-11.91,22.01-31.41,21.86-52.16-.15-20.38-8.07-38.6-21.73-50.01-4.66-3.89-5.29-10.83-1.4-15.49,3.89-4.66,10.83-5.29,15.49-1.4,18.64,15.56,29.44,39.88,29.64,66.73.2,27.14-10.83,52.93-29.51,69-2.08,1.79-4.63,2.66-7.17,2.66Z" fill="#3cc" stroke="#f7f7f7" stroke-miterlimit="10" stroke-width="12"/>
  <path d="m87.95,258.25c-2.5,0-5.01-.85-7.07-2.58-11.92-10.02-18.68-25.25-18.55-41.79.12-16.16,6.93-30.91,18.68-40.48,4.71-3.84,11.64-3.13,15.48,1.58,3.84,4.71,3.13,11.64-1.58,15.48-6.65,5.42-10.5,14.02-10.58,23.6-.08,9.81,3.93,19.08,10.71,24.78,4.65,3.91,5.25,10.85,1.34,15.5-2.18,2.59-5.29,3.92-8.43,3.92Z" fill="#3cc" stroke="#f7f7f7" stroke-miterlimit="10" stroke-width="12"/>
  <path d="m42.68,285.06c-2.54,0-5.09-.88-7.17-2.66-18.68-16.07-29.71-41.86-29.51-69,.2-26.85,11-51.18,29.64-66.73,4.66-3.89,11.6-3.27,15.49,1.4,3.89,4.66,3.27,11.6-1.4,15.49-13.66,11.4-21.58,29.63-21.74,50.01-.15,20.76,8.02,40.26,21.86,52.16,4.6,3.96,5.13,10.91,1.17,15.51-2.18,2.53-5.25,3.83-8.35,3.83Z" fill="#3cc" stroke="#f7f7f7" stroke-miterlimit="10" stroke-width="12"/>
  <path d="m238.8,55.26v-14.05c0-7.28,5.92-13.2,13.2-13.2s13.2,5.92,13.2,13.2v14.05h-26.41Z" stroke-width="0"/>
  <path d="m372.39,292.77v-117.12c0-54.14-35.92-100.04-85.19-115.13v-19.31c0-19.41-15.79-35.2-35.2-35.2s-35.2,15.79-35.2,35.2v19.31c-49.26,15.09-85.19,60.99-85.19,115.14v117.12c-18.36,1-33,16.25-33,34.85v1.35c0,19.25,15.66,34.91,34.91,34.91h65.11c4.84,25.05,26.92,44.04,53.37,44.04s48.53-18.99,53.37-44.04h65.11c19.25,0,34.91-15.66,34.91-34.91v-1.35c0-18.61-14.63-33.86-33-34.85Zm-218.78-117.12c0-54.25,44.14-98.39,98.39-98.39s98.39,44.14,98.39,98.39v117.06h-196.78v-117.06Zm98.39,210.28c-13.98,0-25.92-8.92-30.44-21.36h60.87c-4.51,12.45-16.45,21.36-30.44,21.36Zm131.39-56.95c0,7.12-5.79,12.91-12.91,12.91h-236.96c-7.12,0-12.91-5.79-12.91-12.91v-1.35c0-7.12,5.79-12.91,12.91-12.91h236.96c7.12,0,12.91,5.79,12.91,12.91v1.35Z" stroke="#f7f7f7" stroke-miterlimit="10" stroke-width="12"/>
</svg>