<?xml version="1.0" encoding="UTF-8"?>
<svg id="Capa_1" data-name="Capa 1" xmlns="http://www.w3.org/2000/svg" viewBox="0 0 196.66 277.99">
  <path d="m170.32,109.55c5.56-51.31-13.38-101.93-72-103.55C39.72,7.63,20.76,58.25,26.33,109.55c-11.85,4.36-20.33,15.76-20.33,29.11v102.32c0,17.09,13.91,31,31,31h122.66c17.09,0,31-13.91,31-31v-102.32c0-13.35-8.48-24.75-20.33-29.11ZM98.33,28c46.46,2.25,52.98,41.37,50,79.66H48.33c-3.01-38.3,3.59-77.43,50-79.66Zm70.33,212.98c0,4.96-4.04,9-9,9H37c-4.96,0-9-4.04-9-9v-102.32c0-4.96,4.04-9,9-9h122.66c4.96,0,9,4.04,9,9v102.32Z" stroke="#f7f7f7" stroke-miterlimit="10" stroke-width="12"/>
  <path d="m122.9,160.48l-35.35,35.35-13.79-13.79c-4.3-4.3-11.26-4.29-15.56,0-4.3,4.29-4.3,11.26,0,15.56l21.57,21.57c2.15,2.15,4.96,3.22,7.78,3.22s5.63-1.07,7.78-3.22l43.13-43.13c4.3-4.3,4.3-11.26,0-15.56-4.29-4.3-11.26-4.29-15.55,0Z" fill="#3cc" stroke="#f7f7f7" stroke-miterlimit="10" stroke-width="12"/>
</svg>