<?xml version="1.0" encoding="UTF-8"?>
<svg id="Capa_1" data-name="Capa 1" xmlns="http://www.w3.org/2000/svg" viewBox="0 0 486 486.01">
  <path d="m421.21,366.12c-2.82,10.25-9.79,18.8-18.99,23.71v23.51c0,9.95-8.1,18.05-18.05,18.05h-104.02c-4.35-16.54-19.76-28.66-37.61-28.23-50.48,1.99-50.46,74.86,0,76.84,17.85.43,33.26-11.69,37.61-28.23h104.02c21.18,0,38.42-17.23,38.42-38.42v-47.23h-1.38Zm-160.16,75.92c-.77,23.42-35.34,23.42-36.1,0-.48-10.01,7.54-18.54,17.59-18.51,10.37-.52,19.04,8.14,18.51,18.51Z" fill="#3cc" stroke="#fff" stroke-miterlimit="10" stroke-width="12"/>
  <path d="m441.58,204.58h-18.99v-18.05c0-99.54-80.56-180.53-179.59-180.53S63.41,86.99,63.41,186.53v18.05h-18.99c-21.18,0-38.42,17.23-38.42,38.42v84.7c0,21.18,17.23,38.42,38.42,38.42h20.37c4.48,16.25,19.38,28.23,37.04,28.23,21.18,0,38.42-17.23,38.42-38.42v-141.17c0-21.18-17.23-38.42-38.42-38.42-6.48,0-12.58,1.62-17.94,4.46,3.01-85.67,73.22-154.44,159.11-154.44s156.1,68.77,159.11,154.44c-5.36-2.84-11.46-4.46-17.94-4.46-21.18,0-38.42,17.23-38.42,38.42v141.17c0,21.18,17.23,38.42,38.42,38.42,17.66,0,32.56-11.98,37.04-28.23h20.37c21.18,0,38.42-17.23,38.42-38.42v-84.7c0-21.18-17.24-38.42-38.42-38.42ZM26.37,327.7v-84.7c0-9.95,8.1-18.05,18.05-18.05h18.99v120.8h-18.99c-9.95,0-18.05-8.1-18.05-18.05Zm75.46-130.99c9.95,0,18.05,8.1,18.05,18.05v141.17c0,9.95-8.1,18.05-18.05,18.05s-18.05-8.1-18.05-18.05v-141.17c0-9.95,8.1-18.05,18.05-18.05Zm282.34,177.27c-9.95,0-18.05-8.1-18.05-18.05v-141.17c0-9.95,8.1-18.05,18.05-18.05s18.05,8.1,18.05,18.05v141.17c0,9.95-8.1,18.05-18.05,18.05Zm75.46-46.28c0,9.95-8.1,18.05-18.05,18.05h-18.99v-120.8h18.99c9.95,0,18.05,8.1,18.05,18.05v84.7h0Z" stroke="#fff" stroke-miterlimit="10" stroke-width="12"/>
</svg>