<?xml version="1.0" encoding="UTF-8"?>
<svg id="Layer_1" data-name="Layer 1" xmlns="http://www.w3.org/2000/svg" viewBox="0 0 393.33 466">
  <path d="m360.17,432.83c0,10.05-8.14,18.17-18.17,18.17s-18.17-8.12-18.17-18.17c0-40.08-32.59-72.67-72.67-72.67h-109c-40.08,0-72.67,32.59-72.67,72.67,0,10.05-8.14,18.17-18.17,18.17s-18.17-8.12-18.17-18.17c0-60.11,48.89-109,109-109h109c60.11,0,109,48.89,109,109Z" stroke="#fff" stroke-miterlimit="10" stroke-width="30"/>
  <path d="m378.33,151.25v36.33c0,15.02-12.23,27.25-27.25,27.25h-9.08c0,40.08-32.59,72.67-72.67,72.67H124c-40.08,0-72.67-32.59-72.67-72.67h-9.08c-15.02,0-27.25-12.23-27.25-27.25v-36.33c0-15.02,12.23-27.25,27.25-27.25h9.08c0-40.08,32.59-72.67,72.67-72.67h54.5v-18.17c0-10.05,8.14-18.17,18.17-18.17s18.17,8.12,18.17,18.17v18.17h54.5c40.08,0,72.67,32.59,72.67,72.67h9.08c15.02,0,27.25,12.23,27.25,27.25Z" stroke="#fff" stroke-miterlimit="10" stroke-width="30"/>
  <rect x="87.67" y="87.67" width="218" height="163.5" rx="36.33" ry="36.33" fill="#fff" stroke="#fff" stroke-miterlimit="10" stroke-width="30"/>
  <circle cx="242.08" cy="169.42" r="19.58" fill="#33caca" stroke-width="0"/>
  <circle cx="153.08" cy="169.42" r="19.58" fill="#33caca" stroke-width="0"/>
</svg>